<mxfile host="Electron" agent="Mozilla/5.0 (Macintosh; Intel Mac OS X 10_15_7) AppleWebKit/537.36 (KHTML, like Gecko) draw.io/25.0.2 Chrome/128.0.6613.186 Electron/32.2.5 Safari/537.36" version="25.0.2">
  <diagram name="Page-1" id="QE7G1ACfn4Sz1XbLsYId">
    <mxGraphModel dx="1114" dy="999" grid="1" gridSize="10" guides="1" tooltips="1" connect="1" arrows="1" fold="1" page="1" pageScale="1" pageWidth="850" pageHeight="1100" math="0" shadow="0">
      <root>
        <mxCell id="0" />
        <mxCell id="1" parent="0" />
        <mxCell id="zmgILQPwE5HC3UxDP4bQ-1" value="" style="group" parent="1" vertex="1" connectable="0">
          <mxGeometry x="89" y="220" width="320" height="70" as="geometry" />
        </mxCell>
        <mxCell id="zmgILQPwE5HC3UxDP4bQ-2" value="" style="endArrow=none;html=1;rounded=0;" parent="zmgILQPwE5HC3UxDP4bQ-1" edge="1">
          <mxGeometry width="50" height="50" relative="1" as="geometry">
            <mxPoint as="sourcePoint" />
            <mxPoint x="160" as="targetPoint" />
          </mxGeometry>
        </mxCell>
        <mxCell id="zmgILQPwE5HC3UxDP4bQ-3" value="" style="endArrow=none;html=1;rounded=0;" parent="zmgILQPwE5HC3UxDP4bQ-1" edge="1">
          <mxGeometry width="50" height="50" relative="1" as="geometry">
            <mxPoint y="70" as="sourcePoint" />
            <mxPoint x="160" y="70" as="targetPoint" />
          </mxGeometry>
        </mxCell>
        <mxCell id="zmgILQPwE5HC3UxDP4bQ-4" value="" style="endArrow=none;html=1;rounded=0;" parent="zmgILQPwE5HC3UxDP4bQ-1" edge="1">
          <mxGeometry width="50" height="50" relative="1" as="geometry">
            <mxPoint x="160" y="70" as="sourcePoint" />
            <mxPoint x="160" as="targetPoint" />
          </mxGeometry>
        </mxCell>
        <mxCell id="zmgILQPwE5HC3UxDP4bQ-5" value="Race 1" style="text;html=1;align=right;verticalAlign=middle;whiteSpace=wrap;rounded=0;" parent="zmgILQPwE5HC3UxDP4bQ-1" vertex="1">
          <mxGeometry x="60" y="20" width="90" height="30" as="geometry" />
        </mxCell>
        <mxCell id="zmgILQPwE5HC3UxDP4bQ-6" value="" style="endArrow=none;html=1;rounded=0;" parent="zmgILQPwE5HC3UxDP4bQ-1" edge="1">
          <mxGeometry width="50" height="50" relative="1" as="geometry">
            <mxPoint x="160" y="36" as="sourcePoint" />
            <mxPoint x="320" y="36" as="targetPoint" />
          </mxGeometry>
        </mxCell>
        <mxCell id="zmgILQPwE5HC3UxDP4bQ-7" value="" style="endArrow=none;html=1;rounded=0;" parent="1" edge="1">
          <mxGeometry width="50" height="50" relative="1" as="geometry">
            <mxPoint x="249" y="336" as="sourcePoint" />
            <mxPoint x="409" y="336" as="targetPoint" />
          </mxGeometry>
        </mxCell>
        <mxCell id="zmgILQPwE5HC3UxDP4bQ-9" value="2nd - Loser Race 1" style="text;html=1;align=center;verticalAlign=middle;whiteSpace=wrap;rounded=0;" parent="1" vertex="1">
          <mxGeometry x="279" y="331" width="111" height="30" as="geometry" />
        </mxCell>
        <mxCell id="zmgILQPwE5HC3UxDP4bQ-10" value="1st - Winner Race 1" style="text;html=1;align=center;verticalAlign=middle;whiteSpace=wrap;rounded=0;" parent="1" vertex="1">
          <mxGeometry x="279" y="252" width="111" height="30" as="geometry" />
        </mxCell>
        <mxCell id="zmgILQPwE5HC3UxDP4bQ-11" value="Bracket Seed 1" style="text;html=1;align=center;verticalAlign=middle;whiteSpace=wrap;rounded=0;" parent="1" vertex="1">
          <mxGeometry x="119" y="216" width="90" height="30" as="geometry" />
        </mxCell>
        <mxCell id="zmgILQPwE5HC3UxDP4bQ-12" value="Bracket Seed 2" style="text;html=1;align=center;verticalAlign=middle;whiteSpace=wrap;rounded=0;" parent="1" vertex="1">
          <mxGeometry x="119" y="286" width="90" height="30" as="geometry" />
        </mxCell>
      </root>
    </mxGraphModel>
  </diagram>
</mxfile>
